<svg width="444" height="275" viewBox="0 0 444 275" fill="none" xmlns="http://www.w3.org/2000/svg">
<path d="M51.6 192.656C58.064 192.656 63.568 195.12 68.112 200.048C72.72 204.912 75.024 210.896 75.024 218C75.024 225.104 72.72 231.12 68.112 236.048C63.568 240.912 58.064 243.344 51.6 243.344C44.88 243.344 39.696 241.008 36.048 236.336V242H23.664V174.8H36.048V199.664C39.696 194.992 44.88 192.656 51.6 192.656ZM39.792 227.792C42.288 230.288 45.456 231.536 49.296 231.536C53.136 231.536 56.304 230.288 58.8 227.792C61.36 225.232 62.64 221.968 62.64 218C62.64 214.032 61.36 210.8 58.8 208.304C56.304 205.744 53.136 204.464 49.296 204.464C45.456 204.464 42.288 205.744 39.792 208.304C37.296 210.8 36.048 214.032 36.048 218C36.048 221.968 37.296 225.232 39.792 227.792ZM83.7578 242V171.92H96.1418V242H83.7578ZM148.373 236.048C143.445 240.912 137.429 243.344 130.325 243.344C123.221 243.344 117.205 240.912 112.277 236.048C107.413 231.12 104.98 225.104 104.98 218C104.98 210.896 107.413 204.912 112.277 200.048C117.205 195.12 123.221 192.656 130.325 192.656C137.429 192.656 143.445 195.12 148.373 200.048C153.301 204.912 155.765 210.896 155.765 218C155.765 225.104 153.301 231.12 148.373 236.048ZM121.013 227.504C123.509 230 126.613 231.248 130.325 231.248C134.037 231.248 137.141 230 139.637 227.504C142.133 225.008 143.381 221.84 143.381 218C143.381 214.16 142.133 210.992 139.637 208.496C137.141 206 134.037 204.752 130.325 204.752C126.613 204.752 123.509 206 121.013 208.496C118.581 210.992 117.365 214.16 117.365 218C117.365 221.84 118.581 225.008 121.013 227.504ZM187.325 243.344C180.093 243.344 174.045 240.912 169.181 236.048C164.381 231.184 161.98 225.168 161.98 218C161.98 210.832 164.381 204.816 169.181 199.952C174.045 195.088 180.093 192.656 187.325 192.656C191.997 192.656 196.253 193.776 200.093 196.016C203.933 198.256 206.845 201.264 208.829 205.04L198.173 211.28C197.213 209.296 195.741 207.728 193.757 206.576C191.837 205.424 189.661 204.848 187.229 204.848C183.517 204.848 180.445 206.096 178.013 208.592C175.581 211.024 174.365 214.16 174.365 218C174.365 221.776 175.581 224.912 178.013 227.408C180.445 229.84 183.517 231.056 187.229 231.056C189.725 231.056 191.933 230.512 193.853 229.424C195.837 228.272 197.309 226.704 198.269 224.72L209.021 230.864C206.909 234.64 203.933 237.68 200.093 239.984C196.253 242.224 191.997 243.344 187.325 243.344ZM259.826 242H245.426L227.954 220.208V242H215.57V174.8H227.954V215.12L244.466 194H259.25L239.954 217.712L259.826 242ZM298.923 174.8H311.307V242H298.923V236.336C295.275 241.008 290.091 243.344 283.371 243.344C276.907 243.344 271.371 240.912 266.763 236.048C262.219 231.12 259.947 225.104 259.947 218C259.947 210.896 262.219 204.912 266.763 200.048C271.371 195.12 276.907 192.656 283.371 192.656C290.091 192.656 295.275 194.992 298.923 199.664V174.8ZM276.075 227.792C278.635 230.288 281.835 231.536 285.675 231.536C289.515 231.536 292.683 230.288 295.179 227.792C297.675 225.232 298.923 221.968 298.923 218C298.923 214.032 297.675 210.8 295.179 208.304C292.683 205.744 289.515 204.464 285.675 204.464C281.835 204.464 278.635 205.744 276.075 208.304C273.579 210.8 272.331 214.032 272.331 218C272.331 221.968 273.579 225.232 276.075 227.792ZM363.529 236.048C358.601 240.912 352.585 243.344 345.481 243.344C338.377 243.344 332.361 240.912 327.433 236.048C322.569 231.12 320.137 225.104 320.137 218C320.137 210.896 322.569 204.912 327.433 200.048C332.361 195.12 338.377 192.656 345.481 192.656C352.585 192.656 358.601 195.12 363.529 200.048C368.457 204.912 370.921 210.896 370.921 218C370.921 225.104 368.457 231.12 363.529 236.048ZM336.169 227.504C338.665 230 341.769 231.248 345.481 231.248C349.193 231.248 352.297 230 354.793 227.504C357.289 225.008 358.537 221.84 358.537 218C358.537 214.16 357.289 210.992 354.793 208.496C352.297 206 349.193 204.752 345.481 204.752C341.769 204.752 338.665 206 336.169 208.496C333.737 210.992 332.521 214.16 332.521 218C332.521 221.84 333.737 225.008 336.169 227.504ZM402.481 243.344C395.249 243.344 389.201 240.912 384.337 236.048C379.537 231.184 377.137 225.168 377.137 218C377.137 210.832 379.537 204.816 384.337 199.952C389.201 195.088 395.249 192.656 402.481 192.656C407.153 192.656 411.409 193.776 415.249 196.016C419.089 198.256 422.001 201.264 423.985 205.04L413.329 211.28C412.369 209.296 410.897 207.728 408.913 206.576C406.993 205.424 404.817 204.848 402.385 204.848C398.673 204.848 395.601 206.096 393.169 208.592C390.737 211.024 389.521 214.16 389.521 218C389.521 221.776 390.737 224.912 393.169 227.408C395.601 229.84 398.673 231.056 402.385 231.056C404.881 231.056 407.089 230.512 409.009 229.424C410.993 228.272 412.465 226.704 413.425 224.72L424.177 230.864C422.065 234.64 419.089 237.68 415.249 239.984C411.409 242.224 407.153 243.344 402.481 243.344Z" fill="black"/>
<path d="M222.024 112.246L223.01 112.797L223.991 112.237L295.5 71.4435V85.3451L222.984 127.2L149 85.8269V71.4099L222.024 112.246ZM151.116 68.0103L222.99 28.2905L293.446 68.0103L222.99 108.203L151.116 68.0103Z" fill="white" stroke="black" stroke-width="4"/>
<path d="M222.756 137.936L223.002 138.074L223.248 137.934L297 95.8609V113.211L222.996 155.925L147.5 113.707V95.8525L222.756 137.936Z" fill="black" stroke="black"/>
<ellipse cx="222.5" cy="67" rx="9.5" ry="6" fill="black"/>
</svg>
