<svg width="452" height="283" viewBox="0 0 452 283" fill="none" xmlns="http://www.w3.org/2000/svg">
<g filter="url(#filter0_d_3_47)">
<path d="M55.6 192.656C62.064 192.656 67.568 195.12 72.112 200.048C76.72 204.912 79.024 210.896 79.024 218C79.024 225.104 76.72 231.12 72.112 236.048C67.568 240.912 62.064 243.344 55.6 243.344C48.88 243.344 43.696 241.008 40.048 236.336V242H27.664V174.8H40.048V199.664C43.696 194.992 48.88 192.656 55.6 192.656ZM43.792 227.792C46.288 230.288 49.456 231.536 53.296 231.536C57.136 231.536 60.304 230.288 62.8 227.792C65.36 225.232 66.64 221.968 66.64 218C66.64 214.032 65.36 210.8 62.8 208.304C60.304 205.744 57.136 204.464 53.296 204.464C49.456 204.464 46.288 205.744 43.792 208.304C41.296 210.8 40.048 214.032 40.048 218C40.048 221.968 41.296 225.232 43.792 227.792ZM87.7578 242V171.92H100.142V242H87.7578ZM152.373 236.048C147.445 240.912 141.429 243.344 134.325 243.344C127.221 243.344 121.205 240.912 116.277 236.048C111.413 231.12 108.98 225.104 108.98 218C108.98 210.896 111.413 204.912 116.277 200.048C121.205 195.12 127.221 192.656 134.325 192.656C141.429 192.656 147.445 195.12 152.373 200.048C157.301 204.912 159.765 210.896 159.765 218C159.765 225.104 157.301 231.12 152.373 236.048ZM125.013 227.504C127.509 230 130.613 231.248 134.325 231.248C138.037 231.248 141.141 230 143.637 227.504C146.133 225.008 147.381 221.84 147.381 218C147.381 214.16 146.133 210.992 143.637 208.496C141.141 206 138.037 204.752 134.325 204.752C130.613 204.752 127.509 206 125.013 208.496C122.581 210.992 121.365 214.16 121.365 218C121.365 221.84 122.581 225.008 125.013 227.504ZM191.325 243.344C184.093 243.344 178.045 240.912 173.181 236.048C168.381 231.184 165.98 225.168 165.98 218C165.98 210.832 168.381 204.816 173.181 199.952C178.045 195.088 184.093 192.656 191.325 192.656C195.997 192.656 200.253 193.776 204.093 196.016C207.933 198.256 210.845 201.264 212.829 205.04L202.173 211.28C201.213 209.296 199.741 207.728 197.757 206.576C195.837 205.424 193.661 204.848 191.229 204.848C187.517 204.848 184.445 206.096 182.013 208.592C179.581 211.024 178.365 214.16 178.365 218C178.365 221.776 179.581 224.912 182.013 227.408C184.445 229.84 187.517 231.056 191.229 231.056C193.725 231.056 195.933 230.512 197.853 229.424C199.837 228.272 201.309 226.704 202.269 224.72L213.021 230.864C210.909 234.64 207.933 237.68 204.093 239.984C200.253 242.224 195.997 243.344 191.325 243.344ZM263.826 242H249.426L231.954 220.208V242H219.57V174.8H231.954V215.12L248.466 194H263.25L243.954 217.712L263.826 242ZM302.923 174.8H315.307V242H302.923V236.336C299.275 241.008 294.091 243.344 287.371 243.344C280.907 243.344 275.371 240.912 270.763 236.048C266.219 231.12 263.947 225.104 263.947 218C263.947 210.896 266.219 204.912 270.763 200.048C275.371 195.12 280.907 192.656 287.371 192.656C294.091 192.656 299.275 194.992 302.923 199.664V174.8ZM280.075 227.792C282.635 230.288 285.835 231.536 289.675 231.536C293.515 231.536 296.683 230.288 299.179 227.792C301.675 225.232 302.923 221.968 302.923 218C302.923 214.032 301.675 210.8 299.179 208.304C296.683 205.744 293.515 204.464 289.675 204.464C285.835 204.464 282.635 205.744 280.075 208.304C277.579 210.8 276.331 214.032 276.331 218C276.331 221.968 277.579 225.232 280.075 227.792ZM367.529 236.048C362.601 240.912 356.585 243.344 349.481 243.344C342.377 243.344 336.361 240.912 331.433 236.048C326.569 231.12 324.137 225.104 324.137 218C324.137 210.896 326.569 204.912 331.433 200.048C336.361 195.12 342.377 192.656 349.481 192.656C356.585 192.656 362.601 195.12 367.529 200.048C372.457 204.912 374.921 210.896 374.921 218C374.921 225.104 372.457 231.12 367.529 236.048ZM340.169 227.504C342.665 230 345.769 231.248 349.481 231.248C353.193 231.248 356.297 230 358.793 227.504C361.289 225.008 362.537 221.84 362.537 218C362.537 214.16 361.289 210.992 358.793 208.496C356.297 206 353.193 204.752 349.481 204.752C345.769 204.752 342.665 206 340.169 208.496C337.737 210.992 336.521 214.16 336.521 218C336.521 221.84 337.737 225.008 340.169 227.504ZM406.481 243.344C399.249 243.344 393.201 240.912 388.337 236.048C383.537 231.184 381.137 225.168 381.137 218C381.137 210.832 383.537 204.816 388.337 199.952C393.201 195.088 399.249 192.656 406.481 192.656C411.153 192.656 415.409 193.776 419.249 196.016C423.089 198.256 426.001 201.264 427.985 205.04L417.329 211.28C416.369 209.296 414.897 207.728 412.913 206.576C410.993 205.424 408.817 204.848 406.385 204.848C402.673 204.848 399.601 206.096 397.169 208.592C394.737 211.024 393.521 214.16 393.521 218C393.521 221.776 394.737 224.912 397.169 227.408C399.601 229.84 402.673 231.056 406.385 231.056C408.881 231.056 411.089 230.512 413.009 229.424C414.993 228.272 416.465 226.704 417.425 224.72L428.177 230.864C426.065 234.64 423.089 237.68 419.249 239.984C415.409 242.224 411.153 243.344 406.481 243.344Z" fill="white"/>
<path d="M226.024 112.246L227.01 112.797L227.991 112.237L299.5 71.4435V85.3451L226.984 127.2L153 85.8269V71.4099L226.024 112.246ZM155.116 68.0103L226.99 28.2905L297.446 68.0103L226.99 108.203L155.116 68.0103Z" stroke="white" stroke-width="4"/>
<path d="M226.756 137.936L227.002 138.074L227.248 137.934L301 95.8609V113.211L226.996 155.925L151.5 113.707V95.8525L226.756 137.936Z" fill="white" stroke="white"/>
<ellipse cx="226.5" cy="67" rx="9.5" ry="6" fill="white"/>
</g>
<defs>
<filter id="filter0_d_3_47" x="0" y="0" width="452" height="283" filterUnits="userSpaceOnUse" color-interpolation-filters="sRGB">
<feFlood flood-opacity="0" result="BackgroundImageFix"/>
<feColorMatrix in="SourceAlpha" type="matrix" values="0 0 0 0 0 0 0 0 0 0 0 0 0 0 0 0 0 0 127 0" result="hardAlpha"/>
<feOffset dy="4"/>
<feGaussianBlur stdDeviation="2"/>
<feComposite in2="hardAlpha" operator="out"/>
<feColorMatrix type="matrix" values="0 0 0 0 0 0 0 0 0 0 0 0 0 0 0 0 0 0 0.25 0"/>
<feBlend mode="normal" in2="BackgroundImageFix" result="effect1_dropShadow_3_47"/>
<feBlend mode="normal" in="SourceGraphic" in2="effect1_dropShadow_3_47" result="shape"/>
</filter>
</defs>
</svg>
