<svg width="572" height="127" viewBox="0 0 572 127" fill="none" xmlns="http://www.w3.org/2000/svg">
<g clip-path="url(#clip0_3_59)">
<path d="M197.6 36.656C204.064 36.656 209.568 39.12 214.112 44.048C218.72 48.912 221.024 54.896 221.024 62C221.024 69.104 218.72 75.12 214.112 80.048C209.568 84.912 204.064 87.344 197.6 87.344C190.88 87.344 185.696 85.008 182.048 80.336V86H169.664V18.8H182.048V43.664C185.696 38.992 190.88 36.656 197.6 36.656ZM185.792 71.792C188.288 74.288 191.456 75.536 195.296 75.536C199.136 75.536 202.304 74.288 204.8 71.792C207.36 69.232 208.64 65.968 208.64 62C208.64 58.032 207.36 54.8 204.8 52.304C202.304 49.744 199.136 48.464 195.296 48.464C191.456 48.464 188.288 49.744 185.792 52.304C183.296 54.8 182.048 58.032 182.048 62C182.048 65.968 183.296 69.232 185.792 71.792ZM229.758 86V15.92H242.142V86H229.758ZM294.373 80.048C289.445 84.912 283.429 87.344 276.325 87.344C269.221 87.344 263.205 84.912 258.277 80.048C253.413 75.12 250.98 69.104 250.98 62C250.98 54.896 253.413 48.912 258.277 44.048C263.205 39.12 269.221 36.656 276.325 36.656C283.429 36.656 289.445 39.12 294.373 44.048C299.301 48.912 301.765 54.896 301.765 62C301.765 69.104 299.301 75.12 294.373 80.048ZM267.013 71.504C269.509 74 272.613 75.248 276.325 75.248C280.037 75.248 283.141 74 285.637 71.504C288.133 69.008 289.381 65.84 289.381 62C289.381 58.16 288.133 54.992 285.637 52.496C283.141 50 280.037 48.752 276.325 48.752C272.613 48.752 269.509 50 267.013 52.496C264.581 54.992 263.365 58.16 263.365 62C263.365 65.84 264.581 69.008 267.013 71.504ZM333.325 87.344C326.093 87.344 320.045 84.912 315.181 80.048C310.381 75.184 307.98 69.168 307.98 62C307.98 54.832 310.381 48.816 315.181 43.952C320.045 39.088 326.093 36.656 333.325 36.656C337.997 36.656 342.253 37.776 346.093 40.016C349.933 42.256 352.845 45.264 354.829 49.04L344.173 55.28C343.213 53.296 341.741 51.728 339.757 50.576C337.837 49.424 335.661 48.848 333.229 48.848C329.517 48.848 326.445 50.096 324.013 52.592C321.581 55.024 320.365 58.16 320.365 62C320.365 65.776 321.581 68.912 324.013 71.408C326.445 73.84 329.517 75.056 333.229 75.056C335.725 75.056 337.933 74.512 339.853 73.424C341.837 72.272 343.309 70.704 344.269 68.72L355.021 74.864C352.909 78.64 349.933 81.68 346.093 83.984C342.253 86.224 337.997 87.344 333.325 87.344ZM405.826 86H391.426L373.954 64.208V86H361.57V18.8H373.954V59.12L390.466 38H405.25L385.954 61.712L405.826 86ZM444.923 18.8H457.307V86H444.923V80.336C441.275 85.008 436.091 87.344 429.371 87.344C422.907 87.344 417.371 84.912 412.763 80.048C408.219 75.12 405.947 69.104 405.947 62C405.947 54.896 408.219 48.912 412.763 44.048C417.371 39.12 422.907 36.656 429.371 36.656C436.091 36.656 441.275 38.992 444.923 43.664V18.8ZM422.075 71.792C424.635 74.288 427.835 75.536 431.675 75.536C435.515 75.536 438.683 74.288 441.179 71.792C443.675 69.232 444.923 65.968 444.923 62C444.923 58.032 443.675 54.8 441.179 52.304C438.683 49.744 435.515 48.464 431.675 48.464C427.835 48.464 424.635 49.744 422.075 52.304C419.579 54.8 418.331 58.032 418.331 62C418.331 65.968 419.579 69.232 422.075 71.792ZM509.529 80.048C504.601 84.912 498.585 87.344 491.481 87.344C484.377 87.344 478.361 84.912 473.433 80.048C468.569 75.12 466.137 69.104 466.137 62C466.137 54.896 468.569 48.912 473.433 44.048C478.361 39.12 484.377 36.656 491.481 36.656C498.585 36.656 504.601 39.12 509.529 44.048C514.457 48.912 516.921 54.896 516.921 62C516.921 69.104 514.457 75.12 509.529 80.048ZM482.169 71.504C484.665 74 487.769 75.248 491.481 75.248C495.193 75.248 498.297 74 500.793 71.504C503.289 69.008 504.537 65.84 504.537 62C504.537 58.16 503.289 54.992 500.793 52.496C498.297 50 495.193 48.752 491.481 48.752C487.769 48.752 484.665 50 482.169 52.496C479.737 54.992 478.521 58.16 478.521 62C478.521 65.84 479.737 69.008 482.169 71.504ZM548.481 87.344C541.249 87.344 535.201 84.912 530.337 80.048C525.537 75.184 523.137 69.168 523.137 62C523.137 54.832 525.537 48.816 530.337 43.952C535.201 39.088 541.249 36.656 548.481 36.656C553.153 36.656 557.409 37.776 561.249 40.016C565.089 42.256 568.001 45.264 569.985 49.04L559.329 55.28C558.369 53.296 556.897 51.728 554.913 50.576C552.993 49.424 550.817 48.848 548.385 48.848C544.673 48.848 541.601 50.096 539.169 52.592C536.737 55.024 535.521 58.16 535.521 62C535.521 65.776 536.737 68.912 539.169 71.408C541.601 73.84 544.673 75.056 548.385 75.056C550.881 75.056 553.089 74.512 555.009 73.424C556.993 72.272 558.465 70.704 559.425 68.72L570.177 74.864C568.065 78.64 565.089 81.68 561.249 83.984C557.409 86.224 553.153 87.344 548.481 87.344Z" fill="white"/>
<path d="M72.9855 83.9793L73.9715 84.5307L74.9527 83.9709L144.464 44.3171V57.7225L73.9461 98.4239L2 58.1909V44.2835L72.9855 83.9793ZM4.1162 40.8839L73.952 2.29045L142.409 40.8839L73.9519 79.9368L4.1162 40.8839Z" stroke="white" stroke-width="4"/>
<path d="M73.7176 108.946L73.9641 109.084L74.2094 108.944L145.964 68.0103V84.8645L73.9578 126.425L0.5 85.3466V68.0019L73.7176 108.946Z" fill="white" stroke="white"/>
<path d="M82.2203 39.9004C82.2203 41.2807 81.3333 42.6036 79.7455 43.6065C78.164 44.6053 75.9484 45.2395 73.4751 45.2395C71.0018 45.2395 68.7862 44.6053 67.2047 43.6065C65.6169 42.6036 64.7299 41.2807 64.7299 39.9004C64.7299 38.52 65.6169 37.1971 67.2047 36.1943C68.7862 35.1955 71.0018 34.5613 73.4751 34.5613C75.9484 34.5613 78.164 35.1955 79.7455 36.1943C81.3333 37.1971 82.2203 38.52 82.2203 39.9004Z" fill="white" stroke="white"/>
</g>
<defs>
<clipPath id="clip0_3_59">
<rect width="572" height="127" fill="white"/>
</clipPath>
</defs>
</svg>
